<svg width="16" height="16" viewBox="0 0 16 16" fill="none" xmlns="http://www.w3.org/2000/svg">
<path d="M12.26 0H3.73999C1.67445 0 0 1.67445 0 3.74V12.26C0 14.3255 1.67445 16 3.73999 16H12.26C14.3255 16 16 14.3255 16 12.26V3.74C16 1.67445 14.3255 0 12.26 0Z" fill="#00b2e3
"/>
<path d="M8 11.5C9.933 11.5 11.5 9.933 11.5 8C11.5 6.067 9.933 4.5 8 4.5C6.067 4.5 4.5 6.067 4.5 8C4.5 9.933 6.067 11.5 8 11.5Z" stroke="white" stroke-miterlimit="10"/>
<path d="M12.5 4.5C13.0523 4.5 13.5 4.05228 13.5 3.5C13.5 2.94772 13.0523 2.5 12.5 2.5C11.9477 2.5 11.5 2.94772 11.5 3.5C11.5 4.05228 11.9477 4.5 12.5 4.5Z" fill="#00b2e3
"/>
</svg>
