<svg width="21" height="18" viewBox="0 0 21 18" fill="none" xmlns="http://www.w3.org/2000/svg">
<path d="M20.74 3.05871C20 3.38871 19.37 3.39871 18.71 3.06871C19.56 2.55871 19.6 2.19871 19.91 1.22871C19.11 1.69871 18.22 2.04871 17.28 2.23871C16.53 1.43871 15.45 0.928711 14.26 0.928711C11.97 0.928711 10.12 2.77871 10.12 5.06871C10.12 5.38871 10.16 5.70871 10.23 6.00871C6.79005 5.83871 3.74004 4.18871 1.70004 1.67871C1.34004 2.28871 1.14005 2.99871 1.14005 3.75871C1.14005 5.19871 1.87005 6.45871 2.98005 7.19871C2.30005 7.17871 1.66005 6.98871 1.11005 6.67871C1.11005 6.69871 1.11005 6.70871 1.11005 6.72871C1.11005 8.73871 2.54005 10.4087 4.43005 10.7887C3.82005 10.9587 3.18004 10.9787 2.56004 10.8587C3.09004 12.4987 4.62005 13.6987 6.43005 13.7287C4.66005 15.1187 2.46005 15.6987 0.300049 15.4387C2.13005 16.6087 4.31005 17.2987 6.65005 17.2987C14.26 17.2987 18.43 10.9887 18.43 5.51871C18.43 5.33871 18.43 5.15871 18.42 4.97871C19.23 4.39871 20.2 3.84871 20.75 3.01871L20.74 3.05871Z" fill="#00b2e3"/>
</svg>
