 <svg version="1.1" xmlns="http://www.w3.org/2000/svg" width="24" height="24"
                                            viewBox="0 0 79 64">
                                            <path
                                                d="M78.784 7.552q-3.264 4.928-8.064 8.384 0.064 0.896 0.064 2.048 0 6.528-1.92 12.992-1.856 6.528-5.76 12.48-3.904 5.888-9.28 10.496t-12.864 7.296q-7.552 2.752-16.192 2.752-13.44 0-24.768-7.232 1.984 0.192 3.84 0.192 11.264 0 20.096-6.912-5.248-0.128-9.408-3.264-4.096-3.136-5.696-8 1.536 0.32 3.072 0.32 2.176 0 4.224-0.576-5.568-1.088-9.28-5.568-3.648-4.416-3.648-10.24v-0.256q3.392 1.92 7.296 2.048-3.328-2.176-5.248-5.76-1.92-3.52-1.92-7.68 0-4.352 2.176-8.128 6.080 7.488 14.72 11.904 8.64 4.48 18.56 4.992-0.384-1.792-0.384-3.712 0-6.656 4.736-11.392t11.392-4.736q7.040 0 11.84 5.12 5.44-1.088 10.24-3.968-1.856 5.824-7.104 8.96 4.864-0.576 9.28-2.56z" fill="#fff">
                                            </path>
                                        </svg>